<svg width="555" height="471" viewBox="0 0 555 471" fill="none" xmlns="http://www.w3.org/2000/svg">
<path d="M313.613 1.48825C309.051 -1.36975 303.037 0.0132461 300.179 4.56825L249.776 84.9662C246.454 90.2652 238.733 90.2662 235.41 84.9662L185.004 4.56825C182.146 0.0132461 176.134 -1.36975 171.569 1.48825C167.011 4.34625 165.631 10.3612 168.489 14.9222L220.018 97.1092C210.094 104.283 203.63 115.948 203.63 129.13V194.709H203.731C204.254 202.191 210.425 208.118 218.04 208.118H268.208C275.824 208.118 281.994 202.191 282.517 194.709H282.618V129.13C282.618 115.624 275.835 103.707 265.493 96.5862L316.692 14.9232C319.551 10.3612 318.171 4.34625 313.613 1.48825Z" fill="#8F9799"/>
<rect y="159" width="555" height="312" rx="13" fill="#D9D9D9"/>
<path d="M502.354 235.275C517.346 235.275 529.499 223.122 529.499 208.13C529.499 193.138 517.346 180.985 502.354 180.985C487.362 180.985 475.209 193.138 475.209 208.13C475.209 223.122 487.362 235.275 502.354 235.275Z" fill="#FF473E"/>
<path d="M502.354 320.275C517.346 320.275 529.499 308.122 529.499 293.13C529.499 278.138 517.346 265.985 502.354 265.985C487.362 265.985 475.209 278.138 475.209 293.13C475.209 308.122 487.362 320.275 502.354 320.275Z" fill="#3EE8FF"/>
<path d="M529.655 353.316H475.051C473.719 353.316 472.442 352.787 471.5 351.845C470.558 350.903 470.029 349.626 470.029 348.294C470.029 346.962 470.558 345.685 471.5 344.743C472.442 343.801 473.719 343.272 475.051 343.272H529.655C530.987 343.272 532.264 343.801 533.206 344.743C534.148 345.685 534.677 346.962 534.677 348.294C534.677 349.626 534.148 350.903 533.206 351.845C532.264 352.787 530.987 353.316 529.655 353.316ZM534.678 372.455C534.678 371.795 534.548 371.142 534.296 370.533C534.044 369.924 533.674 369.37 533.207 368.904C532.741 368.437 532.187 368.067 531.578 367.815C530.969 367.563 530.316 367.433 529.656 367.433H475.052C473.72 367.433 472.443 367.962 471.501 368.904C470.559 369.846 470.03 371.123 470.03 372.455C470.03 373.787 470.559 375.064 471.501 376.006C472.443 376.948 473.72 377.477 475.052 377.477H529.656C530.988 377.477 532.265 376.948 533.207 376.006C534.149 375.064 534.678 373.787 534.678 372.455ZM534.678 396.616C534.678 395.956 534.548 395.303 534.296 394.694C534.044 394.085 533.674 393.531 533.207 393.065C532.741 392.598 532.187 392.228 531.578 391.976C530.969 391.724 530.316 391.594 529.656 391.594H475.052C473.72 391.594 472.443 392.123 471.501 393.065C470.559 394.007 470.03 395.284 470.03 396.616C470.03 397.948 470.559 399.225 471.501 400.167C472.443 401.109 473.72 401.638 475.052 401.638H529.656C530.988 401.638 532.265 401.109 533.207 400.167C534.149 399.225 534.678 397.948 534.678 396.616ZM534.678 420.777C534.678 420.117 534.548 419.464 534.296 418.855C534.044 418.246 533.674 417.692 533.207 417.226C532.741 416.759 532.187 416.389 531.578 416.137C530.969 415.885 530.316 415.755 529.656 415.755H475.052C473.72 415.755 472.443 416.284 471.501 417.226C470.559 418.168 470.03 419.445 470.03 420.777C470.03 422.109 470.559 423.386 471.501 424.328C472.443 425.27 473.72 425.799 475.052 425.799H529.656C530.316 425.799 530.969 425.669 531.578 425.417C532.187 425.165 532.741 424.795 533.207 424.328C533.674 423.862 534.044 423.308 534.296 422.699C534.548 422.09 534.678 421.437 534.678 420.777ZM534.678 444.94C534.678 444.28 534.548 443.627 534.296 443.018C534.044 442.409 533.674 441.855 533.207 441.389C532.741 440.922 532.187 440.552 531.578 440.3C530.969 440.048 530.316 439.918 529.656 439.918H475.052C473.72 439.918 472.443 440.447 471.501 441.389C470.559 442.331 470.03 443.608 470.03 444.94C470.03 446.272 470.559 447.549 471.501 448.491C472.443 449.433 473.72 449.962 475.052 449.962H529.656C530.988 449.962 532.265 449.433 533.207 448.491C534.149 447.549 534.678 446.272 534.678 444.94ZM525.308 314.899C526.567 313.639 527.274 311.932 527.274 310.151C527.274 308.37 526.567 306.663 525.308 305.403L488.776 268.871C488.153 268.247 487.412 267.752 486.598 267.415C485.783 267.077 484.91 266.903 484.028 266.903C483.146 266.903 482.273 267.077 481.458 267.415C480.644 267.752 479.903 268.247 479.28 268.871C478.021 270.131 477.314 271.838 477.314 273.619C477.314 275.4 478.021 277.107 479.28 278.367L515.812 314.899C517.124 316.211 518.842 316.864 520.56 316.864C522.278 316.864 523.996 316.211 525.308 314.899Z" fill="#819096"/>
</svg>
